<?xml version="1.0" encoding="UTF-8" standalone="no"?>
<svg
   xmlns:dc="http://purl.org/dc/elements/1.1/"
   xmlns:cc="http://creativecommons.org/ns#"
   xmlns:rdf="http://www.w3.org/1999/02/22-rdf-syntax-ns#"
   xmlns:svg="http://www.w3.org/2000/svg"
   xmlns="http://www.w3.org/2000/svg"
   xmlns:sodipodi="http://sodipodi.sourceforge.net/DTD/sodipodi-0.dtd"
   xmlns:inkscape="http://www.inkscape.org/namespaces/inkscape"
   enable-background="new 0 0 500 500"
   height="500px"
   id="Layer_1"
   version="1.1"
   viewBox="0 0 500 500"
   width="500px"
   xml:space="preserve"
   sodipodi:docname="admin.svg"
   inkscape:version="0.92.3 (2405546, 2018-03-11)"><metadata
     id="metadata9"><rdf:RDF><cc:Work
         rdf:about=""><dc:format>image/svg+xml</dc:format><dc:type
           rdf:resource="http://purl.org/dc/dcmitype/StillImage" /></cc:Work></rdf:RDF></metadata><defs
     id="defs7" /><sodipodi:namedview
     pagecolor="#ffffff"
     bordercolor="#666666"
     borderopacity="1"
     objecttolerance="10"
     gridtolerance="10"
     guidetolerance="10"
     inkscape:pageopacity="0"
     inkscape:pageshadow="2"
     inkscape:window-width="2560"
     inkscape:window-height="1371"
     id="namedview5"
     showgrid="false"
     inkscape:zoom="0.472"
     inkscape:cx="-639.83051"
     inkscape:cy="250"
     inkscape:window-x="0"
     inkscape:window-y="32"
     inkscape:window-maximized="1"
     inkscape:current-layer="Layer_1" /><path
     clip-rule="evenodd"
     d="M415.762,346.214c-19.078-24.896-42.156-41.063-75.223-50.236  l-30.983,108.475c0,9.992-8.181,18.172-18.172,18.172c-9.988,0-18.169-8.18-18.169-18.172v-86.311  c0-12.536-10.178-22.715-22.715-22.715c-12.536,0-22.713,10.179-22.713,22.715v86.311c0,9.992-8.181,18.172-18.17,18.172  c-9.992,0-18.173-8.18-18.173-18.172l-30.983-108.475c-33.068,9.262-56.145,25.34-75.221,50.236  c-7.542,9.812-11.64,29.527-11.908,40.07c0.09,2.725,0,5.906,0,9.082v18.172v18.173c0,20.078,16.264,36.34,36.343,36.34h281.648  c20.078,0,36.345-16.262,36.345-36.34v-18.173v-18.172c0-3.176-0.089-6.357,0-9.082C427.393,375.741,423.3,356.025,415.762,346.214z   M155.102,128.073c0,53.059,33.078,131.013,95.398,131.013c61.237,0,95.396-77.954,95.396-131.013  c0-53.057-42.702-96.124-95.396-96.124C197.806,31.949,155.102,75.016,155.102,128.073z"
     fill="#010101"
     fill-rule="evenodd"
     id="path2"
     style="fill:#fffffc;fill-opacity:1"
     inkscape:export-xdpi="96"
     inkscape:export-ydpi="96" /></svg>