<?xml version="1.0" encoding="UTF-8" standalone="no"?>
<svg
   xmlns:dc="http://purl.org/dc/elements/1.1/"
   xmlns:cc="http://creativecommons.org/ns#"
   xmlns:rdf="http://www.w3.org/1999/02/22-rdf-syntax-ns#"
   xmlns:svg="http://www.w3.org/2000/svg"
   xmlns="http://www.w3.org/2000/svg"
   xmlns:sodipodi="http://sodipodi.sourceforge.net/DTD/sodipodi-0.dtd"
   xmlns:inkscape="http://www.inkscape.org/namespaces/inkscape"
   width="24"
   height="24"
   version="1.1"
   id="svg15"
   sodipodi:docname="no_filter_hover.svg"
   inkscape:version="0.92.3 (2405546, 2018-03-11)">
  <metadata
     id="metadata21">
    <rdf:RDF>
      <cc:Work
         rdf:about="">
        <dc:format>image/svg+xml</dc:format>
        <dc:type
           rdf:resource="http://purl.org/dc/dcmitype/StillImage" />
        <dc:title></dc:title>
      </cc:Work>
    </rdf:RDF>
  </metadata>
  <defs
     id="defs19" />
  <sodipodi:namedview
     pagecolor="#ffffff"
     bordercolor="#666666"
     borderopacity="1"
     objecttolerance="10"
     gridtolerance="10"
     guidetolerance="10"
     inkscape:pageopacity="0"
     inkscape:pageshadow="2"
     inkscape:window-width="1920"
     inkscape:window-height="1024"
     id="namedview17"
     showgrid="false"
     inkscape:zoom="6.9532167"
     inkscape:cx="-20.312077"
     inkscape:cy="7.9718468"
     inkscape:window-x="0"
     inkscape:window-y="27"
     inkscape:window-maximized="1"
     inkscape:current-layer="svg15" />
  <g
     id="g5">
    <title
       id="title2">background</title>
    <rect
       fill="none"
       id="canvas_background"
       height="402"
       width="582"
       y="-1"
       x="-1" />
  </g>
  <g
     id="g13">
    <title
       id="title7">Layer 1</title>
    <path
       id="svg_2"
       fill="#fcf9f9"
       d="m10,11l0,10l4,3l0,-13l-4,0z"
       style="fill:#ffffff;fill-opacity:1" />
    <path
       id="svg_3"
       fill="#ededed"
       d="m10,11l0,10l2,1.5l0,-11.5l-2,0z"
       style="fill:#ffffff;fill-opacity:1" />
    <path
       id="svg_4"
       fill="#ededed"
       d="m1,-0.000024l9,11l4,0l9,-11l-22,0z"
       style="fill:#ffffff;fill-opacity:1" />
    <path
       id="svg_5"
       fill="#d7dddd"
       d="m1,-0.000024l9,11l2,0l0,-11l-11,0z"
       style="fill:#ffffff;fill-opacity:1" />
  </g>
  <g
     transform="matrix(0.46499632,0,0,0.46499632,11.506111,7.0151848)"
     id="miu"
     style="fill:#ff7851;fill-opacity:1;fill-rule:evenodd;stroke:none;stroke-width:1">
    <g
       id="Artboard-1"
       transform="translate(-611,-155)"
       style="fill:#ff7851;fill-opacity:1">
      <g
         id="slice"
         transform="translate(215,119)"
         style="fill:#ff7851;fill-opacity:1" />
      <path
         inkscape:connector-curvature="0"
         d="m 623.5,178 c 6.35127,0 11.5,-5.14873 11.5,-11.5 0,-6.35127 -5.14873,-11.5 -11.5,-11.5 -6.35127,0 -11.5,5.14873 -11.5,11.5 0,6.35127 5.14873,11.5 11.5,11.5 z m -4.24264,-6.55025 -0.70711,-0.70711 4.24264,-4.24264 -4.24264,-4.24264 0.70711,-0.70711 4.24264,4.24264 4.24264,-4.24264 0.70711,0.70711 -4.24264,4.24264 4.24264,4.24264 -0.70711,0.70711 -4.24264,-4.24264 z"
         id="circle-close-delete-remove-glyph"
         style="fill:#ff7851;fill-opacity:1" />
    </g>
  </g>
</svg>
